<mxfile host="app.diagrams.net" modified="2021-10-14T14:14:00.097Z" agent="5.0 (Windows NT 10.0; Win64; x64) AppleWebKit/537.36 (KHTML, like Gecko) Chrome/94.0.4606.81 Safari/537.36 Edg/94.0.992.47" etag="p1E8Cd17hwtcHNB8h1l0" version="15.5.2" type="github">
  <diagram id="C5RBs43oDa-KdzZeNtuy" name="Page-1">
    <mxGraphModel dx="1221" dy="672" grid="1" gridSize="10" guides="1" tooltips="1" connect="1" arrows="1" fold="1" page="1" pageScale="1" pageWidth="827" pageHeight="1169" math="0" shadow="0">
      <root>
        <mxCell id="WIyWlLk6GJQsqaUBKTNV-0" />
        <mxCell id="WIyWlLk6GJQsqaUBKTNV-1" parent="WIyWlLk6GJQsqaUBKTNV-0" />
        <mxCell id="YMg6HpBb6fpajBYmNyEw-0" value="&lt;b&gt;&lt;font style=&quot;font-size: 14px&quot;&gt;물건 도난 방지를 위한 방범 기능을 가진 알람 시스템&lt;/font&gt;&lt;/b&gt;" style="rounded=0;whiteSpace=wrap;html=1;align=center;fillColor=#21C0A5;strokeColor=#006658;fontColor=#5C5C5C;" parent="WIyWlLk6GJQsqaUBKTNV-1" vertex="1">
          <mxGeometry x="80" width="680" height="50" as="geometry" />
        </mxCell>
        <mxCell id="gTwAi9ZmnyOAGjkMO-cp-15" value="&lt;b&gt;자료수집, 전체 구성도 구성&lt;/b&gt;" style="shape=ext;double=1;rounded=0;whiteSpace=wrap;html=1;sketch=0;fontSize=14;fontColor=#5C5C5C;strokeColor=#21C0A5;fillColor=#21C0A5;align=center;" vertex="1" parent="WIyWlLk6GJQsqaUBKTNV-1">
          <mxGeometry x="320" y="250" width="200" height="40" as="geometry" />
        </mxCell>
        <mxCell id="gTwAi9ZmnyOAGjkMO-cp-17" value="" style="edgeStyle=segmentEdgeStyle;endArrow=classic;html=1;rounded=0;sketch=0;fontSize=14;fontColor=#5C5C5C;strokeColor=#006658;fillColor=#21C0A5;" edge="1" parent="WIyWlLk6GJQsqaUBKTNV-1">
          <mxGeometry x="80" width="50" height="50" as="geometry">
            <mxPoint x="419.41" y="290" as="sourcePoint" />
            <mxPoint x="419.91" y="310" as="targetPoint" />
          </mxGeometry>
        </mxCell>
        <mxCell id="gTwAi9ZmnyOAGjkMO-cp-19" value="&lt;b&gt;설계 및 설계 검토&lt;/b&gt;" style="shape=ext;double=1;rounded=0;whiteSpace=wrap;html=1;sketch=0;fontSize=14;fontColor=#5C5C5C;strokeColor=#21C0A5;fillColor=#21C0A5;align=center;" vertex="1" parent="WIyWlLk6GJQsqaUBKTNV-1">
          <mxGeometry x="320" y="310" width="200" height="40" as="geometry" />
        </mxCell>
        <mxCell id="gTwAi9ZmnyOAGjkMO-cp-20" value="" style="edgeStyle=segmentEdgeStyle;endArrow=classic;html=1;rounded=0;sketch=0;fontSize=14;fontColor=#5C5C5C;strokeColor=#006658;fillColor=#21C0A5;" edge="1" parent="WIyWlLk6GJQsqaUBKTNV-1">
          <mxGeometry x="80" width="50" height="50" as="geometry">
            <mxPoint x="419.5" y="350" as="sourcePoint" />
            <mxPoint x="420" y="370" as="targetPoint" />
          </mxGeometry>
        </mxCell>
        <mxCell id="gTwAi9ZmnyOAGjkMO-cp-21" value="&lt;font style=&quot;font-size: 13px&quot;&gt;&lt;b&gt;소스코드 작성, 부품 구입 및 제작&lt;/b&gt;&lt;/font&gt;" style="shape=ext;double=1;rounded=0;whiteSpace=wrap;html=1;sketch=0;fontSize=14;fontColor=#5C5C5C;strokeColor=#21C0A5;fillColor=#21C0A5;align=center;" vertex="1" parent="WIyWlLk6GJQsqaUBKTNV-1">
          <mxGeometry x="320" y="370" width="200" height="40" as="geometry" />
        </mxCell>
        <mxCell id="gTwAi9ZmnyOAGjkMO-cp-2" value="" style="edgeStyle=elbowEdgeStyle;elbow=vertical;endArrow=classic;html=1;rounded=0;strokeColor=#006658;fontColor=#5C5C5C;" edge="1" parent="WIyWlLk6GJQsqaUBKTNV-1">
          <mxGeometry x="363" y="50" width="50" height="50" as="geometry">
            <mxPoint x="420" y="50" as="sourcePoint" />
            <mxPoint x="660" y="90" as="targetPoint" />
            <Array as="points" />
          </mxGeometry>
        </mxCell>
        <mxCell id="gTwAi9ZmnyOAGjkMO-cp-3" value="" style="edgeStyle=elbowEdgeStyle;elbow=vertical;endArrow=classic;html=1;rounded=0;strokeColor=#006658;fontColor=#5C5C5C;" edge="1" parent="WIyWlLk6GJQsqaUBKTNV-1">
          <mxGeometry x="363" y="50" width="50" height="50" as="geometry">
            <mxPoint x="420" y="50" as="sourcePoint" />
            <mxPoint x="180" y="90" as="targetPoint" />
            <Array as="points" />
          </mxGeometry>
        </mxCell>
        <mxCell id="gTwAi9ZmnyOAGjkMO-cp-39" value="" style="group" vertex="1" connectable="0" parent="WIyWlLk6GJQsqaUBKTNV-1">
          <mxGeometry x="80" y="90" width="200" height="120" as="geometry" />
        </mxCell>
        <mxCell id="gTwAi9ZmnyOAGjkMO-cp-6" value="&lt;b&gt;&lt;font style=&quot;font-size: 13px&quot;&gt;알람 시스템 본체 조립 팀&lt;/font&gt;&lt;/b&gt;" style="rounded=0;whiteSpace=wrap;html=1;fontSize=14;fillColor=#21C0A5;strokeColor=#006658;fontColor=#5C5C5C;" vertex="1" parent="gTwAi9ZmnyOAGjkMO-cp-39">
          <mxGeometry width="200" height="30" as="geometry" />
        </mxCell>
        <mxCell id="gTwAi9ZmnyOAGjkMO-cp-9" value="연구내용&lt;br&gt;-&amp;nbsp; 알람 시스템 본체 설계 및 제작&lt;br&gt;- 리드 스위치 설계 및 제작&lt;br&gt;- 빛 센서 설계 및 제작" style="rounded=0;whiteSpace=wrap;html=1;sketch=0;strokeColor=#21C0A5;align=left;" vertex="1" parent="gTwAi9ZmnyOAGjkMO-cp-39">
          <mxGeometry y="30" width="200" height="90" as="geometry" />
        </mxCell>
        <mxCell id="gTwAi9ZmnyOAGjkMO-cp-40" value="" style="group" vertex="1" connectable="0" parent="WIyWlLk6GJQsqaUBKTNV-1">
          <mxGeometry x="560" y="90" width="200" height="120" as="geometry" />
        </mxCell>
        <mxCell id="gTwAi9ZmnyOAGjkMO-cp-7" value="&lt;font style=&quot;font-size: 13px&quot;&gt;&lt;b&gt;알람 시스템 제어장치 개발 팀&lt;/b&gt;&lt;/font&gt;" style="rounded=0;whiteSpace=wrap;html=1;fontSize=14;fillColor=#21C0A5;strokeColor=#006658;fontColor=#5C5C5C;" vertex="1" parent="gTwAi9ZmnyOAGjkMO-cp-40">
          <mxGeometry width="200" height="30" as="geometry" />
        </mxCell>
        <mxCell id="gTwAi9ZmnyOAGjkMO-cp-10" value="연구내용&lt;br&gt;- 라즈베리 파이 SW 설계 및 개발&lt;br&gt;- 아두이노 SW 설계 및 개발&lt;br&gt;- 제어 프로그램 연결" style="rounded=0;whiteSpace=wrap;html=1;sketch=0;strokeColor=#21C0A5;align=left;" vertex="1" parent="gTwAi9ZmnyOAGjkMO-cp-40">
          <mxGeometry y="30" width="200" height="90" as="geometry" />
        </mxCell>
        <mxCell id="gTwAi9ZmnyOAGjkMO-cp-12" value="" style="edgeStyle=elbowEdgeStyle;elbow=vertical;endArrow=classic;html=1;rounded=0;strokeColor=#006658;fontColor=#5C5C5C;exitX=0.5;exitY=1;exitDx=0;exitDy=0;" edge="1" parent="WIyWlLk6GJQsqaUBKTNV-1" source="gTwAi9ZmnyOAGjkMO-cp-10">
          <mxGeometry x="628" y="250" width="50" height="50" as="geometry">
            <mxPoint x="678" y="250" as="sourcePoint" />
            <mxPoint x="420" y="250" as="targetPoint" />
            <Array as="points">
              <mxPoint x="540" y="230" />
            </Array>
          </mxGeometry>
        </mxCell>
        <mxCell id="gTwAi9ZmnyOAGjkMO-cp-13" value="" style="edgeStyle=elbowEdgeStyle;elbow=vertical;endArrow=classic;html=1;rounded=0;strokeColor=#006658;fontColor=#5C5C5C;exitX=0.5;exitY=1;exitDx=0;exitDy=0;" edge="1" parent="WIyWlLk6GJQsqaUBKTNV-1" source="gTwAi9ZmnyOAGjkMO-cp-9">
          <mxGeometry x="130" y="250" width="50" height="50" as="geometry">
            <mxPoint x="180" y="250" as="sourcePoint" />
            <mxPoint x="420" y="250" as="targetPoint" />
            <Array as="points">
              <mxPoint x="300" y="230" />
            </Array>
          </mxGeometry>
        </mxCell>
        <mxCell id="gTwAi9ZmnyOAGjkMO-cp-24" value="" style="edgeStyle=elbowEdgeStyle;elbow=vertical;endArrow=classic;html=1;rounded=0;strokeColor=#006658;fontColor=#5C5C5C;" edge="1" parent="WIyWlLk6GJQsqaUBKTNV-1">
          <mxGeometry x="363" y="410" width="50" height="50" as="geometry">
            <mxPoint x="420" y="410" as="sourcePoint" />
            <mxPoint x="650" y="440" as="targetPoint" />
            <Array as="points">
              <mxPoint x="540" y="420" />
            </Array>
          </mxGeometry>
        </mxCell>
        <mxCell id="gTwAi9ZmnyOAGjkMO-cp-25" value="" style="edgeStyle=elbowEdgeStyle;elbow=vertical;endArrow=classic;html=1;rounded=0;strokeColor=#006658;fontColor=#5C5C5C;" edge="1" parent="WIyWlLk6GJQsqaUBKTNV-1">
          <mxGeometry x="363" y="410" width="50" height="50" as="geometry">
            <mxPoint x="420" y="410" as="sourcePoint" />
            <mxPoint x="180" y="440" as="targetPoint" />
            <Array as="points">
              <mxPoint x="310" y="420" />
            </Array>
          </mxGeometry>
        </mxCell>
        <mxCell id="gTwAi9ZmnyOAGjkMO-cp-44" value="" style="group" vertex="1" connectable="0" parent="WIyWlLk6GJQsqaUBKTNV-1">
          <mxGeometry x="90" y="440" width="660" height="190" as="geometry" />
        </mxCell>
        <mxCell id="gTwAi9ZmnyOAGjkMO-cp-27" value="- 알람 시스템 본체 구성 완료&lt;br&gt;- 리드 스위치 구성 완료&lt;br&gt;- 빛 센서 구성 완료" style="shape=ext;double=1;rounded=0;whiteSpace=wrap;html=1;sketch=0;fontSize=14;fontColor=#5C5C5C;strokeColor=#21C0A5;fillColor=#21C0A5;align=left;" vertex="1" parent="gTwAi9ZmnyOAGjkMO-cp-44">
          <mxGeometry width="200" height="60" as="geometry" />
        </mxCell>
        <mxCell id="gTwAi9ZmnyOAGjkMO-cp-28" value="- 제어 프로그램 연동실험&lt;br&gt;- 빛 센서 특성실험&lt;br&gt;- 리드 스위치 특성 실험" style="shape=ext;double=1;rounded=0;whiteSpace=wrap;html=1;sketch=0;fontSize=14;fontColor=#5C5C5C;strokeColor=#21C0A5;fillColor=#21C0A5;align=left;" vertex="1" parent="gTwAi9ZmnyOAGjkMO-cp-44">
          <mxGeometry x="460" width="200" height="60" as="geometry" />
        </mxCell>
        <mxCell id="gTwAi9ZmnyOAGjkMO-cp-32" value="" style="edgeStyle=elbowEdgeStyle;elbow=vertical;endArrow=classic;html=1;rounded=0;strokeColor=#006658;fontColor=#5C5C5C;exitX=0.5;exitY=1;exitDx=0;exitDy=0;" edge="1" parent="gTwAi9ZmnyOAGjkMO-cp-44" source="gTwAi9ZmnyOAGjkMO-cp-28">
          <mxGeometry x="508" y="170" width="50" height="50" as="geometry">
            <mxPoint x="558" y="170" as="sourcePoint" />
            <mxPoint x="330" y="90" as="targetPoint" />
            <Array as="points">
              <mxPoint x="450" y="70" />
            </Array>
          </mxGeometry>
        </mxCell>
        <mxCell id="gTwAi9ZmnyOAGjkMO-cp-33" value="" style="edgeStyle=elbowEdgeStyle;elbow=vertical;endArrow=classic;html=1;rounded=0;strokeColor=#006658;fontColor=#5C5C5C;exitX=0.5;exitY=1;exitDx=0;exitDy=0;" edge="1" parent="gTwAi9ZmnyOAGjkMO-cp-44" source="gTwAi9ZmnyOAGjkMO-cp-27">
          <mxGeometry x="10" y="170" width="50" height="50" as="geometry">
            <mxPoint x="60" y="170" as="sourcePoint" />
            <mxPoint x="330" y="90" as="targetPoint" />
            <Array as="points">
              <mxPoint x="220" y="70" />
            </Array>
          </mxGeometry>
        </mxCell>
        <mxCell id="gTwAi9ZmnyOAGjkMO-cp-42" value="" style="group" vertex="1" connectable="0" parent="gTwAi9ZmnyOAGjkMO-cp-44">
          <mxGeometry x="190" y="90" width="280" height="100" as="geometry" />
        </mxCell>
        <mxCell id="gTwAi9ZmnyOAGjkMO-cp-34" value="&lt;b&gt;알람 시스템의 앱 알림 및 빛 밝기 특성실험&lt;/b&gt;" style="shape=ext;double=1;rounded=0;whiteSpace=wrap;html=1;sketch=0;fontSize=14;fontColor=#5C5C5C;strokeColor=#21C0A5;fillColor=#21C0A5;align=center;" vertex="1" parent="gTwAi9ZmnyOAGjkMO-cp-42">
          <mxGeometry width="280" height="40" as="geometry" />
        </mxCell>
        <mxCell id="gTwAi9ZmnyOAGjkMO-cp-35" value="" style="edgeStyle=segmentEdgeStyle;endArrow=classic;html=1;rounded=0;sketch=0;fontSize=14;fontColor=#5C5C5C;strokeColor=#006658;fillColor=#21C0A5;" edge="1" parent="gTwAi9ZmnyOAGjkMO-cp-42">
          <mxGeometry width="50" height="50" relative="1" as="geometry">
            <mxPoint x="139.41000000000008" y="40" as="sourcePoint" />
            <mxPoint x="139.91000000000008" y="60" as="targetPoint" />
          </mxGeometry>
        </mxCell>
        <mxCell id="gTwAi9ZmnyOAGjkMO-cp-37" value="&lt;b&gt;알림 시스템의 기숙사 및 가정에 이용&lt;/b&gt;" style="shape=ext;double=1;rounded=0;whiteSpace=wrap;html=1;sketch=0;fontSize=14;fontColor=#5C5C5C;strokeColor=#21C0A5;fillColor=#21C0A5;align=center;" vertex="1" parent="gTwAi9ZmnyOAGjkMO-cp-42">
          <mxGeometry y="60" width="280" height="40" as="geometry" />
        </mxCell>
      </root>
    </mxGraphModel>
  </diagram>
</mxfile>
